<svg width="130" height="130" viewBox="0 0 130 130" fill="none" xmlns="http://www.w3.org/2000/svg">
<circle cx="65" cy="65" r="65" fill="black"/>
<path d="M81.312 94.208C79.712 94.208 78.08 93.696 76.416 92.672C74.816 91.712 73.184 90.144 71.52 87.968C69.472 85.152 67.744 82.464 66.336 79.904C64.928 77.344 63.776 75.104 62.88 73.184C62.048 71.264 61.408 69.888 60.96 69.056C60.96 69.056 61.12 68.864 61.44 68.48C61.76 68.032 62.144 67.616 62.592 67.232C63.104 66.784 63.52 66.56 63.84 66.56C66.848 66.56 69.536 66.528 71.904 66.464C74.336 66.336 76.48 65.952 78.336 65.312C80.256 64.608 81.952 63.424 83.424 61.76C84.896 60.096 86.144 57.728 87.168 54.656C87.488 53.888 87.68 53.12 87.744 52.352C87.872 51.52 87.936 50.72 87.936 49.952C87.936 47.776 87.392 45.856 86.304 44.192C85.216 42.528 83.648 41.568 81.6 41.312C81.344 41.248 81.056 41.216 80.736 41.216C80.416 41.216 80.096 41.216 79.776 41.216C78.56 41.216 77.216 41.376 75.744 41.696C74.336 42.016 73.28 42.624 72.576 43.52C70.976 45.632 69.44 48.032 67.968 50.72C66.496 53.344 65.088 56.032 63.744 58.784C62.4 61.472 61.12 64 59.904 66.368C59.584 67.008 58.976 68.16 58.08 69.824C57.184 71.424 56.192 73.28 55.104 75.392C54.016 77.44 52.992 79.488 52.032 81.536C51.072 83.584 50.304 85.408 49.728 87.008C49.216 88.608 49.088 89.696 49.344 90.272C49.408 90.336 49.44 90.432 49.44 90.56C49.44 90.752 49.344 90.848 49.152 90.848C48.64 90.848 48.128 90.72 47.616 90.464C47.104 90.208 46.496 90.08 45.792 90.08C45.152 90.08 44.512 90.24 43.872 90.56C43.232 90.816 42.4 91.296 41.376 92C40.352 92.704 39.2 93.28 37.92 93.728C37.792 93.792 37.6 93.824 37.344 93.824C36.896 93.824 36.544 93.696 36.288 93.44C36.032 93.248 36.032 93.088 36.288 92.96C37.696 92.704 38.912 92.192 39.936 91.424C40.96 90.592 41.792 89.568 42.432 88.352C43.776 86.112 45.088 83.872 46.368 81.632C47.712 79.328 48.992 77.024 50.208 74.72C51.68 71.904 53.184 69.088 54.72 66.272C56.256 63.392 57.792 60.544 59.328 57.728C60.8 55.104 62.112 52.576 63.264 50.144C64.416 47.712 65.28 45.952 65.856 44.864C66.304 44.032 67.072 43.296 68.16 42.656C69.312 41.952 70.432 41.408 71.52 41.024C71.136 41.024 70.752 41.024 70.368 41.024C69.984 40.96 69.568 40.928 69.12 40.928C67.136 40.928 64.96 41.056 62.592 41.312C60.288 41.504 58.016 41.824 55.776 42.272C53.6 42.72 51.68 43.328 50.016 44.096C48.352 44.864 47.232 45.792 46.656 46.88C46.4 47.456 46.176 48.032 45.984 48.608C45.792 49.184 45.696 49.76 45.696 50.336C45.696 51.808 46.208 52.864 47.232 53.504C47.296 53.504 47.328 53.568 47.328 53.696C47.328 53.824 47.2 53.952 46.944 54.08C46.752 54.208 46.592 54.24 46.464 54.176C45.824 53.856 45.088 53.088 44.256 51.872C43.488 50.592 42.976 49.536 42.72 48.704C42.528 47.936 42.432 47.232 42.432 46.592C42.432 44.928 42.976 43.648 44.064 42.752C45.152 41.792 46.528 41.12 48.192 40.736C49.856 40.288 51.552 40.032 53.28 39.968C55.072 39.84 56.64 39.776 57.984 39.776C60.032 39.776 62.464 39.776 65.28 39.776C68.096 39.712 70.688 39.68 73.056 39.68C73.632 39.68 74.272 39.68 74.976 39.68C75.68 39.616 76.416 39.584 77.184 39.584C78.912 39.584 80.704 39.68 82.56 39.872C84.416 40.064 86.112 40.48 87.648 41.12C89.184 41.76 90.368 42.752 91.2 44.096C92.288 45.888 92.832 47.936 92.832 50.24C92.832 53.76 91.904 56.704 90.048 59.072C89.408 59.904 88.704 60.704 87.936 61.472C87.168 62.24 86.272 62.976 85.248 63.68C83.584 64.832 81.6 65.824 79.296 66.656C76.992 67.424 74.592 68 72.096 68.384C69.664 68.768 67.424 69.024 65.376 69.152C66.208 70.944 67.456 73.344 69.12 76.352C70.848 79.36 72.928 82.368 75.36 85.376C76.64 86.976 77.952 88.096 79.296 88.736C80.64 89.376 81.952 89.696 83.232 89.696C85.28 89.696 87.2 89.088 88.992 87.872C90.848 86.656 92.512 85.248 93.984 83.648C95.52 81.984 96.736 80.544 97.632 79.328C97.824 79.008 97.984 78.848 98.112 78.848C98.304 78.848 98.4 79.04 98.4 79.424C98.4 79.936 98.208 80.448 97.824 80.96C94.88 84.992 92.064 88.224 89.376 90.656C86.688 93.024 84 94.208 81.312 94.208Z" fill="white"/>
</svg>
